<svg width="94" height="100" viewBox="0 0 94 100" fill="none" xmlns="http://www.w3.org/2000/svg">
<g filter="url(#filter0_b_1_228)">
<rect y="6" width="89" height="89" rx="44.5" fill="#313036" fill-opacity="0.3"/>
<rect y="6" width="89" height="89" rx="44.5" fill="url(#paint0_linear_1_228)"/>
<rect x="1" y="7" width="87" height="87" rx="43.5" stroke="url(#paint1_linear_1_228)" stroke-width="2"/>
</g>
<g filter="url(#filter1_di_1_228)">
<path d="M60.3334 50.0001C60.3334 55.0401 58.0467 59.7067 54.1034 62.8334C52.4934 64.0934 51.4434 65.7501 51.1167 67.5234L51 67.5001H37L36.8367 67.5234C36.51 65.6801 35.5534 64.0701 34.1767 63.0434C29.09 59.1934 26.71 52.8934 28.0167 46.5467C29.3 40.3634 34.3167 35.3234 40.5 34.0401C45.4234 32.9901 50.4634 34.2034 54.29 37.3067C58.14 40.4334 60.3334 45.0534 60.3334 50.0001Z" fill="url(#paint2_radial_1_228)"/>
</g>
<g filter="url(#filter2_di_1_228)">
<path d="M59.3324 36.4176C58.8844 36.4176 58.4364 36.2473 58.0957 35.9043C57.412 35.2206 57.412 34.1123 58.0957 33.4286L61.325 30.1993C62.0087 29.5156 63.117 29.5156 63.8007 30.1993C64.4843 30.8829 64.4843 31.9913 63.8007 32.6749L60.5714 35.9043C60.2284 36.2449 59.7804 36.4176 59.3324 36.4176Z" fill="url(#paint3_radial_1_228)"/>
</g>
<g filter="url(#filter3_di_1_228)">
<path d="M70.25 51.75H65.6837C64.7177 51.75 63.9337 50.966 63.9337 50C63.9337 49.034 64.7177 48.25 65.6837 48.25H70.25C71.216 48.25 72 49.034 72 50C72 50.966 71.216 51.75 70.25 51.75Z" fill="url(#paint4_radial_1_228)"/>
</g>
<g filter="url(#filter4_di_1_228)">
<path d="M62.5617 70.3116C62.1137 70.3116 61.6657 70.1413 61.325 69.7983L58.0957 66.569C57.412 65.8853 57.412 64.777 58.0957 64.0933C58.7794 63.4096 59.8877 63.4096 60.5714 64.0933L63.8007 67.3226C64.4843 68.0063 64.4843 69.1146 63.8007 69.7983C63.4577 70.1413 63.0097 70.3116 62.5617 70.3116Z" fill="url(#paint5_radial_1_228)"/>
</g>
<g filter="url(#filter5_di_1_228)">
<path d="M51.0107 67.5021C51.0696 67.5139 51.1083 67.5706 51.0985 67.6298C51.0387 67.9912 51 68.3542 51 68.7367V73.9167C51 76.1567 49.1567 78 46.9167 78H41.0833C39.1233 78 37 76.5067 37 73.24V69.11C37 68.6259 36.962 68.1418 36.8689 67.6748C36.8526 67.593 36.9074 67.5132 36.99 67.5014C36.9966 67.5005 37.0034 67.5 37.0101 67.5H50.9891C50.9963 67.5 51.0036 67.5007 51.0107 67.5021Z" fill="url(#paint6_linear_1_228)"/>
</g>
<g filter="url(#filter6_di_1_228)">
<path d="M44 30.0663C43.034 30.0663 42.25 29.2823 42.25 28.3163V23.75C42.25 22.784 43.034 22 44 22C44.966 22 45.75 22.784 45.75 23.75V28.3163C45.75 29.2823 44.966 30.0663 44 30.0663Z" fill="url(#paint7_radial_1_228)"/>
</g>
<g filter="url(#filter7_di_1_228)">
<path d="M28.6677 36.4176C28.2197 36.4176 27.7717 36.2473 27.431 35.9043L24.2017 32.6749C23.518 31.9913 23.518 30.8829 24.2017 30.1993C24.8854 29.5156 25.9937 29.5156 26.6774 30.1993L29.9067 33.4286C30.5904 34.1123 30.5904 35.2206 29.9067 35.9043C29.5614 36.2449 29.1157 36.4176 28.6677 36.4176Z" fill="url(#paint8_radial_1_228)"/>
</g>
<g filter="url(#filter8_di_1_228)">
<path d="M22.3163 51.75H17.75C16.784 51.75 16 50.966 16 50C16 49.034 16.784 48.25 17.75 48.25H22.3163C23.2823 48.25 24.0663 49.034 24.0663 50C24.0663 50.966 23.2823 51.75 22.3163 51.75Z" fill="url(#paint9_radial_1_228)"/>
</g>
<g filter="url(#filter9_di_1_228)">
<path d="M25.4384 70.3116C24.9904 70.3116 24.5424 70.1413 24.2017 69.7983C23.518 69.1146 23.518 68.0063 24.2017 67.3226L27.431 64.0933C28.1147 63.4096 29.223 63.4096 29.9067 64.0933C30.5904 64.777 30.5904 65.8853 29.9067 66.569L26.6774 69.7983C26.3344 70.1413 25.8864 70.3116 25.4384 70.3116Z" fill="url(#paint10_radial_1_228)"/>
</g>
<defs>
<filter id="filter0_b_1_228" x="-4" y="2" width="97" height="97" filterUnits="userSpaceOnUse" color-interpolation-filters="sRGB">
<feFlood flood-opacity="0" result="BackgroundImageFix"/>
<feGaussianBlur in="BackgroundImage" stdDeviation="2"/>
<feComposite in2="SourceAlpha" operator="in" result="effect1_backgroundBlur_1_228"/>
<feBlend mode="normal" in="SourceGraphic" in2="effect1_backgroundBlur_1_228" result="shape"/>
</filter>
<filter id="filter1_di_1_228" x="17.6637" y="11.6699" width="64.6697" height="65.8535" filterUnits="userSpaceOnUse" color-interpolation-filters="sRGB">
<feFlood flood-opacity="0" result="BackgroundImageFix"/>
<feColorMatrix in="SourceAlpha" type="matrix" values="0 0 0 0 0 0 0 0 0 0 0 0 0 0 0 0 0 0 127 0" result="hardAlpha"/>
<feOffset dx="6" dy="-6"/>
<feGaussianBlur stdDeviation="8"/>
<feColorMatrix type="matrix" values="0 0 0 0 1 0 0 0 0 0.670588 0 0 0 0 0.282353 0 0 0 0.2 0"/>
<feBlend mode="normal" in2="BackgroundImageFix" result="effect1_dropShadow_1_228"/>
<feBlend mode="normal" in="SourceGraphic" in2="effect1_dropShadow_1_228" result="shape"/>
<feColorMatrix in="SourceAlpha" type="matrix" values="0 0 0 0 0 0 0 0 0 0 0 0 0 0 0 0 0 0 127 0" result="hardAlpha"/>
<feOffset dx="-10" dy="10"/>
<feGaussianBlur stdDeviation="10"/>
<feComposite in2="hardAlpha" operator="arithmetic" k2="-1" k3="1"/>
<feColorMatrix type="matrix" values="0 0 0 0 1 0 0 0 0 1 0 0 0 0 1 0 0 0 0.24 0"/>
<feBlend mode="normal" in2="shape" result="effect2_innerShadow_1_228"/>
</filter>
<filter id="filter2_di_1_228" x="47.5829" y="7.68652" width="38.7305" height="38.7311" filterUnits="userSpaceOnUse" color-interpolation-filters="sRGB">
<feFlood flood-opacity="0" result="BackgroundImageFix"/>
<feColorMatrix in="SourceAlpha" type="matrix" values="0 0 0 0 0 0 0 0 0 0 0 0 0 0 0 0 0 0 127 0" result="hardAlpha"/>
<feOffset dx="6" dy="-6"/>
<feGaussianBlur stdDeviation="8"/>
<feColorMatrix type="matrix" values="0 0 0 0 1 0 0 0 0 0.670588 0 0 0 0 0.282353 0 0 0 0.2 0"/>
<feBlend mode="normal" in2="BackgroundImageFix" result="effect1_dropShadow_1_228"/>
<feBlend mode="normal" in="SourceGraphic" in2="effect1_dropShadow_1_228" result="shape"/>
<feColorMatrix in="SourceAlpha" type="matrix" values="0 0 0 0 0 0 0 0 0 0 0 0 0 0 0 0 0 0 127 0" result="hardAlpha"/>
<feOffset dx="-10" dy="10"/>
<feGaussianBlur stdDeviation="10"/>
<feComposite in2="hardAlpha" operator="arithmetic" k2="-1" k3="1"/>
<feColorMatrix type="matrix" values="0 0 0 0 1 0 0 0 0 1 0 0 0 0 1 0 0 0 0.24 0"/>
<feBlend mode="normal" in2="shape" result="effect2_innerShadow_1_228"/>
</filter>
<filter id="filter3_di_1_228" x="53.9337" y="26.25" width="40.0663" height="35.5" filterUnits="userSpaceOnUse" color-interpolation-filters="sRGB">
<feFlood flood-opacity="0" result="BackgroundImageFix"/>
<feColorMatrix in="SourceAlpha" type="matrix" values="0 0 0 0 0 0 0 0 0 0 0 0 0 0 0 0 0 0 127 0" result="hardAlpha"/>
<feOffset dx="6" dy="-6"/>
<feGaussianBlur stdDeviation="8"/>
<feColorMatrix type="matrix" values="0 0 0 0 1 0 0 0 0 0.670588 0 0 0 0 0.282353 0 0 0 0.2 0"/>
<feBlend mode="normal" in2="BackgroundImageFix" result="effect1_dropShadow_1_228"/>
<feBlend mode="normal" in="SourceGraphic" in2="effect1_dropShadow_1_228" result="shape"/>
<feColorMatrix in="SourceAlpha" type="matrix" values="0 0 0 0 0 0 0 0 0 0 0 0 0 0 0 0 0 0 127 0" result="hardAlpha"/>
<feOffset dx="-10" dy="10"/>
<feGaussianBlur stdDeviation="10"/>
<feComposite in2="hardAlpha" operator="arithmetic" k2="-1" k3="1"/>
<feColorMatrix type="matrix" values="0 0 0 0 1 0 0 0 0 1 0 0 0 0 1 0 0 0 0.24 0"/>
<feBlend mode="normal" in2="shape" result="effect2_innerShadow_1_228"/>
</filter>
<filter id="filter4_di_1_228" x="47.5829" y="41.5806" width="38.7305" height="38.7311" filterUnits="userSpaceOnUse" color-interpolation-filters="sRGB">
<feFlood flood-opacity="0" result="BackgroundImageFix"/>
<feColorMatrix in="SourceAlpha" type="matrix" values="0 0 0 0 0 0 0 0 0 0 0 0 0 0 0 0 0 0 127 0" result="hardAlpha"/>
<feOffset dx="6" dy="-6"/>
<feGaussianBlur stdDeviation="8"/>
<feColorMatrix type="matrix" values="0 0 0 0 1 0 0 0 0 0.670588 0 0 0 0 0.282353 0 0 0 0.2 0"/>
<feBlend mode="normal" in2="BackgroundImageFix" result="effect1_dropShadow_1_228"/>
<feBlend mode="normal" in="SourceGraphic" in2="effect1_dropShadow_1_228" result="shape"/>
<feColorMatrix in="SourceAlpha" type="matrix" values="0 0 0 0 0 0 0 0 0 0 0 0 0 0 0 0 0 0 127 0" result="hardAlpha"/>
<feOffset dx="-10" dy="10"/>
<feGaussianBlur stdDeviation="10"/>
<feComposite in2="hardAlpha" operator="arithmetic" k2="-1" k3="1"/>
<feColorMatrix type="matrix" values="0 0 0 0 1 0 0 0 0 1 0 0 0 0 1 0 0 0 0.24 0"/>
<feBlend mode="normal" in2="shape" result="effect2_innerShadow_1_228"/>
</filter>
<filter id="filter5_di_1_228" x="26.8661" y="57.5" width="46.2339" height="42.5" filterUnits="userSpaceOnUse" color-interpolation-filters="sRGB">
<feFlood flood-opacity="0" result="BackgroundImageFix"/>
<feColorMatrix in="SourceAlpha" type="matrix" values="0 0 0 0 0 0 0 0 0 0 0 0 0 0 0 0 0 0 127 0" result="hardAlpha"/>
<feOffset dx="6" dy="6"/>
<feGaussianBlur stdDeviation="8"/>
<feColorMatrix type="matrix" values="0 0 0 0 0.67451 0 0 0 0 0.686275 0 0 0 0 0.815686 0 0 0 0.35 0"/>
<feBlend mode="normal" in2="BackgroundImageFix" result="effect1_dropShadow_1_228"/>
<feBlend mode="normal" in="SourceGraphic" in2="effect1_dropShadow_1_228" result="shape"/>
<feColorMatrix in="SourceAlpha" type="matrix" values="0 0 0 0 0 0 0 0 0 0 0 0 0 0 0 0 0 0 127 0" result="hardAlpha"/>
<feOffset dx="-10" dy="-10"/>
<feGaussianBlur stdDeviation="10"/>
<feComposite in2="hardAlpha" operator="arithmetic" k2="-1" k3="1"/>
<feColorMatrix type="matrix" values="0 0 0 0 1 0 0 0 0 1 0 0 0 0 1 0 0 0 0.24 0"/>
<feBlend mode="normal" in2="shape" result="effect2_innerShadow_1_228"/>
</filter>
<filter id="filter6_di_1_228" x="32.25" y="0" width="35.5" height="40.0663" filterUnits="userSpaceOnUse" color-interpolation-filters="sRGB">
<feFlood flood-opacity="0" result="BackgroundImageFix"/>
<feColorMatrix in="SourceAlpha" type="matrix" values="0 0 0 0 0 0 0 0 0 0 0 0 0 0 0 0 0 0 127 0" result="hardAlpha"/>
<feOffset dx="6" dy="-6"/>
<feGaussianBlur stdDeviation="8"/>
<feColorMatrix type="matrix" values="0 0 0 0 1 0 0 0 0 0.670588 0 0 0 0 0.282353 0 0 0 0.2 0"/>
<feBlend mode="normal" in2="BackgroundImageFix" result="effect1_dropShadow_1_228"/>
<feBlend mode="normal" in="SourceGraphic" in2="effect1_dropShadow_1_228" result="shape"/>
<feColorMatrix in="SourceAlpha" type="matrix" values="0 0 0 0 0 0 0 0 0 0 0 0 0 0 0 0 0 0 127 0" result="hardAlpha"/>
<feOffset dx="-10" dy="10"/>
<feGaussianBlur stdDeviation="10"/>
<feComposite in2="hardAlpha" operator="arithmetic" k2="-1" k3="1"/>
<feColorMatrix type="matrix" values="0 0 0 0 1 0 0 0 0 1 0 0 0 0 1 0 0 0 0.24 0"/>
<feBlend mode="normal" in2="shape" result="effect2_innerShadow_1_228"/>
</filter>
<filter id="filter7_di_1_228" x="13.689" y="7.68652" width="38.7305" height="38.7311" filterUnits="userSpaceOnUse" color-interpolation-filters="sRGB">
<feFlood flood-opacity="0" result="BackgroundImageFix"/>
<feColorMatrix in="SourceAlpha" type="matrix" values="0 0 0 0 0 0 0 0 0 0 0 0 0 0 0 0 0 0 127 0" result="hardAlpha"/>
<feOffset dx="6" dy="-6"/>
<feGaussianBlur stdDeviation="8"/>
<feColorMatrix type="matrix" values="0 0 0 0 1 0 0 0 0 0.670588 0 0 0 0 0.282353 0 0 0 0.2 0"/>
<feBlend mode="normal" in2="BackgroundImageFix" result="effect1_dropShadow_1_228"/>
<feBlend mode="normal" in="SourceGraphic" in2="effect1_dropShadow_1_228" result="shape"/>
<feColorMatrix in="SourceAlpha" type="matrix" values="0 0 0 0 0 0 0 0 0 0 0 0 0 0 0 0 0 0 127 0" result="hardAlpha"/>
<feOffset dx="-10" dy="10"/>
<feGaussianBlur stdDeviation="10"/>
<feComposite in2="hardAlpha" operator="arithmetic" k2="-1" k3="1"/>
<feColorMatrix type="matrix" values="0 0 0 0 1 0 0 0 0 1 0 0 0 0 1 0 0 0 0.24 0"/>
<feBlend mode="normal" in2="shape" result="effect2_innerShadow_1_228"/>
</filter>
<filter id="filter8_di_1_228" x="6" y="26.25" width="40.0663" height="35.5" filterUnits="userSpaceOnUse" color-interpolation-filters="sRGB">
<feFlood flood-opacity="0" result="BackgroundImageFix"/>
<feColorMatrix in="SourceAlpha" type="matrix" values="0 0 0 0 0 0 0 0 0 0 0 0 0 0 0 0 0 0 127 0" result="hardAlpha"/>
<feOffset dx="6" dy="-6"/>
<feGaussianBlur stdDeviation="8"/>
<feColorMatrix type="matrix" values="0 0 0 0 1 0 0 0 0 0.670588 0 0 0 0 0.282353 0 0 0 0.2 0"/>
<feBlend mode="normal" in2="BackgroundImageFix" result="effect1_dropShadow_1_228"/>
<feBlend mode="normal" in="SourceGraphic" in2="effect1_dropShadow_1_228" result="shape"/>
<feColorMatrix in="SourceAlpha" type="matrix" values="0 0 0 0 0 0 0 0 0 0 0 0 0 0 0 0 0 0 127 0" result="hardAlpha"/>
<feOffset dx="-10" dy="10"/>
<feGaussianBlur stdDeviation="10"/>
<feComposite in2="hardAlpha" operator="arithmetic" k2="-1" k3="1"/>
<feColorMatrix type="matrix" values="0 0 0 0 1 0 0 0 0 1 0 0 0 0 1 0 0 0 0.24 0"/>
<feBlend mode="normal" in2="shape" result="effect2_innerShadow_1_228"/>
</filter>
<filter id="filter9_di_1_228" x="13.689" y="41.5806" width="38.7305" height="38.7311" filterUnits="userSpaceOnUse" color-interpolation-filters="sRGB">
<feFlood flood-opacity="0" result="BackgroundImageFix"/>
<feColorMatrix in="SourceAlpha" type="matrix" values="0 0 0 0 0 0 0 0 0 0 0 0 0 0 0 0 0 0 127 0" result="hardAlpha"/>
<feOffset dx="6" dy="-6"/>
<feGaussianBlur stdDeviation="8"/>
<feColorMatrix type="matrix" values="0 0 0 0 1 0 0 0 0 0.670588 0 0 0 0 0.282353 0 0 0 0.2 0"/>
<feBlend mode="normal" in2="BackgroundImageFix" result="effect1_dropShadow_1_228"/>
<feBlend mode="normal" in="SourceGraphic" in2="effect1_dropShadow_1_228" result="shape"/>
<feColorMatrix in="SourceAlpha" type="matrix" values="0 0 0 0 0 0 0 0 0 0 0 0 0 0 0 0 0 0 127 0" result="hardAlpha"/>
<feOffset dx="-10" dy="10"/>
<feGaussianBlur stdDeviation="10"/>
<feComposite in2="hardAlpha" operator="arithmetic" k2="-1" k3="1"/>
<feColorMatrix type="matrix" values="0 0 0 0 1 0 0 0 0 1 0 0 0 0 1 0 0 0 0.24 0"/>
<feBlend mode="normal" in2="shape" result="effect2_innerShadow_1_228"/>
</filter>
<linearGradient id="paint0_linear_1_228" x1="4.38115" y1="10.9399" x2="44.5" y2="52.28" gradientUnits="userSpaceOnUse">
<stop stop-color="#B1B1B1" stop-opacity="0.32"/>
<stop offset="1" stop-color="#363567" stop-opacity="0.2"/>
</linearGradient>
<linearGradient id="paint1_linear_1_228" x1="-18.7493" y1="-0.411946" x2="5.36297" y2="113.152" gradientUnits="userSpaceOnUse">
<stop stop-color="white" stop-opacity="0.2"/>
<stop offset="1" stop-color="white" stop-opacity="0"/>
</linearGradient>
<radialGradient id="paint2_radial_1_228" cx="0" cy="0" r="1" gradientUnits="userSpaceOnUse" gradientTransform="translate(35.2029 31.0658) rotate(64.242) scale(23.1313 22.6335)">
<stop stop-color="#FFE974"/>
<stop offset="1" stop-color="#FFAB48"/>
</radialGradient>
<radialGradient id="paint3_radial_1_228" cx="0" cy="0" r="1" gradientUnits="userSpaceOnUse" gradientTransform="translate(59.1361 29.1687) rotate(63.437) scale(4.63104 4.6308)">
<stop stop-color="#FFE974"/>
<stop offset="1" stop-color="#FFAB48"/>
</radialGradient>
<radialGradient id="paint4_radial_1_228" cx="0" cy="0" r="1" gradientUnits="userSpaceOnUse" gradientTransform="translate(65.7952 47.9808) rotate(40.9516) scale(3.2862 4.0668)">
<stop stop-color="#FFE974"/>
<stop offset="1" stop-color="#FFAB48"/>
</radialGradient>
<radialGradient id="paint5_radial_1_228" cx="0" cy="0" r="1" gradientUnits="userSpaceOnUse" gradientTransform="translate(59.1361 63.0628) rotate(63.437) scale(4.63104 4.6308)">
<stop stop-color="#FFE974"/>
<stop offset="1" stop-color="#FFAB48"/>
</radialGradient>
<linearGradient id="paint6_linear_1_228" x1="37.4317" y1="67.5" x2="40.2594" y2="78.9204" gradientUnits="userSpaceOnUse">
<stop stop-color="#D7DDE8"/>
<stop offset="1" stop-color="#ACAFD0"/>
</linearGradient>
<radialGradient id="paint7_radial_1_228" cx="0" cy="0" r="1" gradientUnits="userSpaceOnUse" gradientTransform="translate(43.0577 21.3795) rotate(77.7593) scale(5.07937 2.6311)">
<stop stop-color="#FFE974"/>
<stop offset="1" stop-color="#FFAB48"/>
</radialGradient>
<radialGradient id="paint8_radial_1_228" cx="0" cy="0" r="1" gradientUnits="userSpaceOnUse" gradientTransform="translate(25.2422 29.1687) rotate(63.4369) scale(4.63104 4.6308)">
<stop stop-color="#FFE974"/>
<stop offset="1" stop-color="#FFAB48"/>
</radialGradient>
<radialGradient id="paint9_radial_1_228" cx="0" cy="0" r="1" gradientUnits="userSpaceOnUse" gradientTransform="translate(17.8615 47.9808) rotate(40.9516) scale(3.2862 4.0668)">
<stop stop-color="#FFE974"/>
<stop offset="1" stop-color="#FFAB48"/>
</radialGradient>
<radialGradient id="paint10_radial_1_228" cx="0" cy="0" r="1" gradientUnits="userSpaceOnUse" gradientTransform="translate(25.2422 63.0628) rotate(63.4369) scale(4.63104 4.6308)">
<stop stop-color="#FFE974"/>
<stop offset="1" stop-color="#FFAB48"/>
</radialGradient>
</defs>
</svg>
