<svg width="40" height="46" viewBox="0 0 40 46" fill="none" xmlns="http://www.w3.org/2000/svg">
<path d="M19.9755 45.3644L3.64024 40.8296L0 0H40L36.3559 40.8232L19.9755 45.3644Z" fill="#264DE4"/>
<path d="M33.2361 38.2239L36.3503 3.33862H20V41.8935L33.2361 38.2239Z" fill="#2965F1"/>
<path d="M8.3457 18.4814L8.79452 23.489H20.0005V18.4814H8.3457Z" fill="#EBEBEB"/>
<path d="M7.44336 8.34619L7.89857 13.3538H20V8.34619H7.44336Z" fill="#EBEBEB"/>
<path d="M19.9998 31.4869L19.9779 31.4927L14.4009 29.9868L14.0444 25.993H9.01758L9.71914 33.8557L19.9768 36.7033L19.9998 36.6969V31.4869Z" fill="#EBEBEB"/>
<path d="M31.6225 18.4817L32.5265 8.34619H19.9824V13.3538H27.0386L26.583 18.4817H19.9824V23.4892H26.1487L25.5675 29.9836L19.9824 31.4911V36.7009L30.2482 33.8557L30.3236 33.0097L31.5003 19.8263L31.6225 18.4817Z" fill="white"/>
</svg>
