<svg width="21" height="33" viewBox="0 0 21 33" fill="none" xmlns="http://www.w3.org/2000/svg">
<path d="M5.25 33C8.148 33 10.5 30.536 10.5 27.5V22H5.25C2.352 22 0 24.464 0 27.5C0 30.536 2.352 33 5.25 33Z" fill="#0ACF83"/>
<path d="M0 16.5C0 13.464 2.352 11 5.25 11H10.5V22H5.25C2.352 22 0 19.536 0 16.5Z" fill="#A259FF"/>
<path d="M0 5.5C0 2.464 2.352 0 5.25 0H10.5V11H5.25C2.352 11 0 8.536 0 5.5Z" fill="#F24E1E"/>
<path d="M10.5 0H15.75C18.648 0 21 2.464 21 5.5C21 8.536 18.648 11 15.75 11H10.5V0Z" fill="#FF7262"/>
<path d="M21 16.5C21 19.536 18.648 22 15.75 22C12.852 22 10.5 19.536 10.5 16.5C10.5 13.464 12.852 11 15.75 11C18.648 11 21 13.464 21 16.5Z" fill="#1ABCFE"/>
</svg>
