<svg width="39" height="44" viewBox="0 0 39 44" fill="none" xmlns="http://www.w3.org/2000/svg">
<path d="M38.797 0L35.2625 39.5954L19.3747 44L3.53076 39.6016L0 0H38.797Z" fill="#E44D26"/>
<path d="M19.3984 40.6335L32.2365 37.0742L35.257 3.23816H19.3984V40.6335Z" fill="#F16529"/>
<path d="M12.5278 12.9522H19.3987V8.09521H7.21973L7.33599 9.39827L8.52974 22.7828H19.3987V17.9259H12.9717L12.5278 12.9522Z" fill="#EBEBEB"/>
<path d="M13.6217 25.2113H8.74609L9.42655 32.8375L19.3757 35.5994L19.3981 35.5932V30.5399L19.3768 30.5456L13.9675 29.085L13.6217 25.2113Z" fill="#EBEBEB"/>
<path d="M19.3818 22.7825H25.3627L24.7989 29.0816L19.3818 30.5437V35.5968L29.3389 32.8372L29.4119 32.0166L30.5533 19.2298L30.6718 17.9255H19.3818V22.7825Z" fill="white"/>
<path d="M19.3818 12.9404V12.9522H31.1137L31.2112 11.8605L31.4325 9.39827L31.5486 8.09521H19.3818V12.9404Z" fill="white"/>
</svg>
