<svg width="40" height="40" viewBox="0 0 40 40" fill="none" xmlns="http://www.w3.org/2000/svg">
<path d="M0 0H40V40H0V0Z" fill="#F7DF1E"/>
<path d="M10.5176 33.4271L13.5787 31.5746C14.1693 32.6216 14.7065 33.5075 15.995 33.5075C17.2302 33.5075 18.0089 33.0243 18.0089 31.145V18.364H21.7679V31.1981C21.7679 35.0914 19.4858 36.8636 16.1562 36.8636C13.1491 36.8636 11.4036 35.3062 10.5176 33.4267" fill="white"/>
<path d="M23.8096 33.024L26.8703 31.2518C27.676 32.5677 28.7232 33.5342 30.5757 33.5342C32.1333 33.5342 33.1265 32.7555 33.1265 31.6814C33.1265 30.3926 32.1062 29.9361 30.3877 29.1845L29.4482 28.7815C26.7362 27.6272 24.9371 26.1772 24.9371 23.1162C24.9371 20.2969 27.0851 18.1488 30.4416 18.1488C32.8313 18.1488 34.5497 18.9812 35.7847 21.1562L32.858 23.0356C32.2135 21.8811 31.5156 21.4247 30.4416 21.4247C29.3407 21.4247 28.6426 22.1228 28.6426 23.0356C28.6426 24.1633 29.3407 24.6199 30.9516 25.3181L31.8913 25.7208C35.0865 27.0903 36.8856 28.4863 36.8856 31.6277C36.8856 35.0111 34.2274 36.8636 30.6564 36.8636C27.1658 36.8636 24.9103 35.199 23.8096 33.024" fill="white"/>
</svg>
