<svg width="40" height="45" viewBox="0 0 40 45" fill="none" xmlns="http://www.w3.org/2000/svg">
<path d="M37.4962 21.7508C37.4962 19.4799 35.6553 17.639 33.3842 17.639C33.2382 17.639 33.0941 17.6468 32.9521 17.6617L38.5997 1.00452H14.599L20.2388 17.6472C20.1561 17.6422 20.0729 17.639 19.989 17.639C17.7181 17.639 15.877 19.4799 15.877 21.7508C15.877 23.5865 17.08 25.1405 18.7404 25.6693C17.8635 27.1883 16.76 28.5564 15.5072 29.7384C13.8036 31.3455 11.854 32.5641 9.74523 33.3151C7.23468 32.0253 6.04905 29.1571 7.11889 26.6421C7.2396 26.3581 7.36302 26.0703 7.48082 25.7836C9.29974 25.3591 10.655 23.7286 10.655 21.7804C10.655 19.5094 8.81408 17.6685 6.54305 17.6685C4.27211 17.6685 2.4311 19.5094 2.4311 21.7804C2.4311 23.173 3.12404 24.403 4.18313 25.1468C3.16542 27.4641 1.66937 29.8892 1.20329 32.6999C0.644721 36.0684 1.20148 39.6439 4.11484 41.6632C10.8998 46.3658 18.2649 38.7479 26.0303 36.833C28.8447 36.139 31.9339 36.2508 34.4134 34.8148C36.2754 33.7363 37.5029 31.9491 37.8513 29.9426C38.1954 27.9604 37.6937 25.9868 36.5398 24.3865C37.1366 23.6728 37.4962 22.754 37.4962 21.7508Z" fill="#99425B"/>
<path d="M36.8613 29.7704C36.5588 31.5124 35.4829 33.034 33.9095 33.9454C32.4427 34.7949 30.6851 35.0485 28.8242 35.3168C27.8273 35.4605 26.7964 35.6093 25.7893 35.8576C23.1265 36.5142 20.5474 37.7954 18.0532 39.0342C13.0617 41.5135 8.75103 43.6544 4.68638 40.8375C1.70905 38.7739 1.84653 34.956 2.1934 32.8638C2.51487 30.9255 3.38396 29.1404 4.22442 27.414C4.36964 27.1155 4.51194 26.8226 4.65043 26.5322C5.067 26.6986 5.51007 26.8122 5.97193 26.8638C5.1164 29.6873 6.46181 32.7573 9.28579 34.208L9.67223 34.4066L10.0816 34.2609C12.314 33.4658 14.3712 32.19 16.1958 30.4685C17.3752 29.3557 18.3893 28.1247 19.2228 26.8093C19.4726 26.847 19.7282 26.8668 19.9884 26.8668C22.5802 26.8668 24.7265 24.9292 25.0586 22.4266C26.1195 22.3878 27.2464 22.3875 28.3134 22.4262C28.6453 24.929 30.7917 26.8668 33.3836 26.8668C34.4673 26.8668 35.4726 26.5271 36.3007 25.9502C36.8756 27.1271 37.0903 28.4513 36.8613 29.7704ZM6.54246 18.6724C8.25613 18.6724 9.65014 20.0665 9.65014 21.7801C9.65014 22.3956 9.46957 22.9696 9.15946 23.4529C8.64277 24.2585 7.76494 24.8108 6.75596 24.8797C6.68536 24.8845 6.61426 24.8878 6.54246 24.8878C6.16063 24.8878 5.79478 24.8181 5.45655 24.6917C4.77235 24.4356 4.20223 23.9447 3.84361 23.3178C3.584 22.864 3.43477 22.3393 3.43477 21.7801C3.43477 20.0665 4.82889 18.6724 6.54246 18.6724ZM16.8807 21.7506C16.8807 20.1937 18.0316 18.9009 19.5271 18.6773C19.6777 18.6547 19.8317 18.6429 19.9884 18.6429C20.9846 18.6429 21.8716 19.1149 22.4405 19.8462C22.5819 20.0279 22.7045 20.225 22.8032 20.4355C22.9907 20.8352 23.0961 21.2807 23.0961 21.7506C23.0961 21.999 23.066 22.2406 23.0106 22.4722C22.7077 23.7401 21.6266 24.7091 20.3019 24.8425C20.1989 24.8528 20.0942 24.8583 19.9884 24.8583C19.368 24.8583 18.7899 24.6748 18.3042 24.3603C17.4485 23.806 16.8807 22.8436 16.8807 21.7506ZM29.851 18.0552C29.1853 18.6922 28.6902 19.5061 28.4437 20.4212C27.2929 20.3781 26.0726 20.3781 24.9285 20.4212C24.6656 19.4458 24.1205 18.5852 23.3873 17.9316L26.603 11.4293L29.851 18.0552ZM15.9992 2.00852H37.1982L32.1913 16.7758C31.9743 16.8279 31.7626 16.8935 31.5571 16.9723L26.6109 6.8823L21.6508 16.9121C21.4363 16.8382 21.2154 16.7788 20.9892 16.7337L15.9992 2.00852ZM36.4913 21.7506C36.4913 22.0622 36.4447 22.363 36.3591 22.647C36.155 23.3226 35.7268 23.9016 35.1613 24.2975C34.6571 24.6504 34.0443 24.8583 33.3836 24.8583C31.9487 24.8583 30.7383 23.8804 30.3825 22.5562C30.3134 22.2991 30.2759 22.0292 30.2759 21.7506C30.2759 21.3258 30.3618 20.9208 30.5168 20.5517C30.5966 20.3615 30.6962 20.1817 30.8106 20.0128C31.3699 19.1874 32.3137 18.6429 33.3836 18.6429C33.4817 18.6429 33.5786 18.648 33.6744 18.657C35.2522 18.804 36.4913 20.135 36.4913 21.7506ZM38.4998 21.7506C38.4998 19.2528 36.7002 17.1687 34.3298 16.7234L40 0H13.1978L18.8766 16.7575C16.5885 17.2667 14.8722 19.3113 14.8722 21.7506C14.8722 23.5821 15.8402 25.1911 17.2909 26.0951C16.5931 27.1347 15.7656 28.113 14.8175 29.0076C13.3136 30.4263 11.6383 31.5022 9.83211 32.2101C8.01289 31.0673 7.24383 28.9123 8.04252 27.0348L8.10508 26.8877C8.14425 26.7958 8.18342 26.7037 8.22248 26.6116C10.2207 25.9146 11.6587 24.0128 11.6587 21.7801C11.6587 18.9589 9.36352 16.6639 6.54246 16.6639C3.72139 16.6639 1.42625 18.9589 1.42625 21.7801C1.42625 23.204 2.01153 24.4935 2.95353 25.422C2.7828 25.7858 2.60304 26.1559 2.41856 26.5348C1.55731 28.3038 0.581164 30.3088 0.211998 32.5352C-0.521213 36.957 0.661505 40.4917 3.54223 42.4883C5.29034 43.6998 7.06547 44.1761 8.85195 44.1761C12.2158 44.1761 15.6186 42.4861 18.9467 40.833C21.3435 39.6426 23.8221 38.4115 26.2703 37.8077C27.1811 37.583 28.1185 37.4479 29.1109 37.3048C31.0788 37.0209 33.1137 36.7274 34.9161 35.6835C37.0055 34.4733 38.4358 32.4432 38.8402 30.1141C39.1874 28.1145 38.7696 26.1117 37.7506 24.4133C38.2256 23.6371 38.4998 22.7253 38.4998 21.7506Z" fill="white"/>
</svg>
