<svg width="41" height="41" viewBox="0 0 41 41" fill="none" xmlns="http://www.w3.org/2000/svg">
<path d="M19.1574 0.0110332C19.0692 0.0190477 18.7887 0.0470983 18.5362 0.0671345C12.7128 0.592082 7.25816 3.73375 3.80342 8.56246C1.87967 11.2473 0.649267 14.2928 0.18436 17.5186C0.0200391 18.6447 0 18.9773 0 20.504C0 22.0308 0.0200391 22.3634 0.18436 23.4894C1.29853 31.1873 6.77722 37.655 14.2077 40.0513C15.5383 40.4801 16.9411 40.7726 18.5362 40.9489C19.1574 41.017 21.8426 41.017 22.4638 40.9489C25.2172 40.6444 27.5498 39.9631 29.8502 38.789C30.2029 38.6087 30.2711 38.5606 30.223 38.5205C30.1909 38.4965 28.688 36.4808 26.8845 34.0444L23.6061 29.6165L19.498 23.5375C17.2376 20.1955 15.378 17.4625 15.362 17.4625C15.3459 17.4585 15.3299 20.1594 15.3219 23.4573C15.3099 29.2318 15.3059 29.4642 15.2337 29.6004C15.1295 29.7968 15.0494 29.8769 14.881 29.9651C14.7528 30.0292 14.6406 30.0412 14.0354 30.0412H13.342L13.1577 29.925C13.0374 29.8489 12.9493 29.7487 12.8891 29.6325L12.805 29.4522L12.813 21.4177L12.825 13.3792L12.9493 13.2229C13.0134 13.1387 13.1497 13.0305 13.2458 12.9784C13.4102 12.8983 13.4743 12.8903 14.1676 12.8903C14.9852 12.8903 15.1215 12.9223 15.3339 13.1548C15.394 13.2189 17.6184 16.5689 20.2796 20.6042C22.9408 24.6395 26.5799 30.1494 28.3674 32.8543L31.6137 37.7712L31.778 37.663C33.2328 36.7173 34.7718 35.3708 35.9902 33.9683C38.5833 30.9909 40.2545 27.3604 40.8156 23.4894C40.98 22.3634 41 22.0308 41 20.504C41 18.9773 40.98 18.6447 40.8156 17.5186C39.7015 9.82074 34.2228 3.35306 26.7923 0.95674C25.4817 0.531973 24.087 0.239445 22.524 0.0631273C22.1392 0.0230549 19.49 -0.0210246 19.1574 0.0110332ZM27.5498 12.4094C27.7421 12.5056 27.8984 12.6899 27.9545 12.8823C27.9866 12.9864 27.9946 15.2145 27.9866 20.2355L27.9746 27.4405L26.7041 25.493L25.4296 23.5455V18.3081C25.4296 14.9219 25.4457 13.0185 25.4697 12.9263C25.5338 12.7019 25.6741 12.5256 25.8665 12.4214C26.0308 12.3373 26.0909 12.3293 26.7201 12.3293C27.3133 12.3293 27.4175 12.3373 27.5498 12.4094Z" fill="black"/>
</svg>
