<svg width="40" height="36" viewBox="0 0 40 36" fill="none" xmlns="http://www.w3.org/2000/svg">
<path d="M32.888 11.5349C32.4731 11.3921 32.0431 11.257 31.6004 11.1292C31.6732 10.8322 31.7399 10.5391 31.7993 10.2509C32.774 5.51951 32.1367 1.70785 29.9605 0.452889C27.8738 -0.750453 24.4611 0.504225 21.0145 3.50372C20.6831 3.79214 20.3507 4.09752 20.0185 4.41756C19.7972 4.20581 19.5762 4.00119 19.3557 3.80546C15.7436 0.598208 12.1229 -0.753372 9.94884 0.505221C7.86412 1.71205 7.24675 5.29538 8.12414 9.77938C8.20887 10.2125 8.30791 10.6548 8.41991 11.1045C7.90748 11.2499 7.41279 11.405 6.93946 11.57C2.70458 13.0464 0 15.3604 0 17.7606C0 20.2396 2.90337 22.726 7.31432 24.2337C7.66241 24.3526 8.02361 24.4651 8.39584 24.5719C8.27502 25.0583 8.16992 25.5349 8.08171 25.9998C7.24511 30.4059 7.89844 33.9046 9.97761 35.1038C12.1252 36.3423 15.7295 35.0693 19.2391 32.0014C19.5165 31.7589 19.7949 31.5018 20.0738 31.2322C20.4352 31.5803 20.7962 31.9097 21.1551 32.2187C24.5546 35.1441 27.9122 36.3254 29.9894 35.1228C32.1349 33.8808 32.8321 30.1224 31.9269 25.5497C31.8578 25.2005 31.7773 24.8437 31.687 24.4806C31.9401 24.4057 32.1886 24.3285 32.4309 24.2482C37.0165 22.7289 40 20.2727 40 17.7606C40 15.3517 37.2082 13.0222 32.888 11.5349ZM31.8934 22.6262C31.6747 22.6986 31.4503 22.7686 31.2216 22.8364C30.7154 21.2338 30.0321 19.5296 29.1961 17.769C29.9939 16.0502 30.6507 14.3678 31.1428 12.7756C31.552 12.894 31.9491 13.0189 32.3318 13.1507C36.0333 14.4249 38.2912 16.3089 38.2912 17.7606C38.2912 19.3069 35.8528 21.3143 31.8934 22.6262ZM30.2506 25.8816C30.6509 27.9036 30.708 29.7317 30.4429 31.1608C30.2047 32.4449 29.7256 33.3011 29.1332 33.644C27.8726 34.3737 25.1768 33.4252 22.2696 30.9234C21.9363 30.6366 21.6006 30.3304 21.2638 30.0063C22.3909 28.7736 23.5173 27.3406 24.6167 25.7491C26.5504 25.5775 28.3773 25.2969 30.0341 24.914C30.1157 25.2431 30.1881 25.5659 30.2506 25.8816ZM13.6369 33.5179C12.4053 33.9529 11.4244 33.9653 10.8314 33.6234C9.56971 32.8957 9.04518 30.0866 9.76066 26.3184C9.84261 25.8869 9.94016 25.4436 10.0526 24.9905C11.6912 25.3528 13.5047 25.6136 15.443 25.7707C16.5498 27.3281 17.7088 28.7595 18.8768 30.0129C18.6216 30.2593 18.3674 30.4938 18.1146 30.7148C16.5627 32.0714 15.0075 33.0338 13.6369 33.5179ZM7.86697 22.6167C5.91653 21.9501 4.30579 21.0836 3.2017 20.1382C2.2096 19.2886 1.70872 18.4451 1.70872 17.7606C1.70872 16.3041 3.88023 14.4463 7.50193 13.1836C7.94137 13.0303 8.40139 12.886 8.87879 12.7503C9.37932 14.3785 10.0359 16.0808 10.8283 17.8022C10.0257 19.5492 9.35974 21.2786 8.85429 22.9259C8.51396 22.828 8.18424 22.7251 7.86697 22.6167ZM9.8011 9.45122C9.04938 5.60944 9.54863 2.71134 10.8049 1.98411C12.1431 1.20938 15.1023 2.31397 18.2211 5.08328C18.4204 5.26028 18.6206 5.44554 18.8213 5.63721C17.6591 6.88512 16.5107 8.30583 15.4138 9.854C13.5325 10.0284 11.7317 10.3085 10.0761 10.6835C9.97198 10.2648 9.87978 9.85343 9.8011 9.45122ZM27.0553 13.7117C26.6595 13.0281 26.2532 12.3606 25.8389 11.7113C27.1152 11.8726 28.338 12.0868 29.4863 12.3489C29.1415 13.4538 28.7118 14.609 28.206 15.7932C27.8432 15.1044 27.4594 14.4098 27.0553 13.7117ZM20.0191 6.85842C20.8073 7.71232 21.5966 8.66568 22.3729 9.70006C21.5906 9.66311 20.7986 9.64389 20 9.64389C19.209 9.64389 18.4228 9.66268 17.6453 9.69899C18.4224 8.67422 19.2186 7.72214 20.0191 6.85842ZM12.9378 13.7235C12.5424 14.4091 12.1658 15.0999 11.8086 15.792C11.311 14.6118 10.8853 13.4513 10.5376 12.3308C11.6788 12.0754 12.8959 11.8666 14.164 11.7083C13.7439 12.3636 13.3342 13.036 12.9378 13.7234V13.7235ZM14.2005 23.9348C12.8903 23.7887 11.655 23.5906 10.514 23.3422C10.8673 22.2017 11.3024 21.0164 11.8106 19.8109C12.1686 20.5024 12.5468 21.1935 12.9446 21.8806H12.9446C13.3498 22.5805 13.7696 23.2662 14.2005 23.9348ZM20.0664 28.7833C19.2565 27.9095 18.4486 26.9429 17.6597 25.9031C18.4256 25.9332 19.2064 25.9486 20 25.9486C20.8153 25.9486 21.6213 25.9302 22.4146 25.8949C21.6357 26.9533 20.8492 27.9214 20.0664 28.7833ZM28.2223 19.7494C28.757 20.968 29.2077 22.1471 29.5655 23.2682C28.4057 23.5328 27.1536 23.7459 25.8342 23.9042C26.2495 23.2462 26.6594 22.5672 27.0621 21.8688C27.4696 21.1622 27.8565 20.4546 28.2223 19.7494ZM25.582 21.0152C24.9567 22.0993 24.3148 23.1343 23.6631 24.1112C22.4761 24.1961 21.2498 24.2398 20 24.2398C18.7552 24.2398 17.5444 24.2011 16.3784 24.1254C15.7005 23.1357 15.0446 22.0977 14.4233 21.0245H14.4234C13.8038 19.9542 13.2335 18.8749 12.7167 17.8016C13.2333 16.7259 13.8022 15.6454 14.4182 14.577L14.4181 14.5772C15.0358 13.506 15.686 12.4731 16.3576 11.4895C17.5473 11.3996 18.7671 11.3527 19.9999 11.3527H20C21.2384 11.3527 22.4598 11.3999 23.649 11.4907C24.3105 12.467 24.9562 13.4966 25.5763 14.568C26.2035 15.6513 26.7797 16.7247 27.3007 17.7774C26.7813 18.8481 26.2064 19.9323 25.582 21.0152ZM29.107 1.93327C30.4465 2.70571 30.9674 5.82097 30.1258 9.90604C30.0721 10.1667 30.0116 10.4322 29.946 10.7013C28.2865 10.3184 26.4844 10.0334 24.5977 9.85642C23.4986 8.29124 22.3596 6.86832 21.2164 5.63642C21.5237 5.34073 21.8307 5.05878 22.1363 4.79271C25.0894 2.22277 27.8495 1.2081 29.107 1.93327ZM20 14.1888C21.9727 14.1888 23.5719 15.7879 23.5719 17.7606C23.5719 19.7333 21.9727 21.3325 20 21.3325C18.0273 21.3325 16.4281 19.7333 16.4281 17.7606C16.4281 15.7879 18.0273 14.1888 20 14.1888Z" fill="#00D8FF"/>
</svg>
