<svg width="40" height="38" viewBox="0 0 40 38" fill="none" xmlns="http://www.w3.org/2000/svg">
<path d="M27.7158 26.5207C29.1919 26.368 30.3118 25.0954 30.2609 23.5683C30.21 22.0412 28.9374 20.8195 27.4104 20.8195H27.3086C25.7306 20.8705 24.509 22.1939 24.5599 23.772C24.6108 24.5355 24.9162 25.1972 25.3743 25.6554C23.6436 29.0659 20.9968 31.5602 17.0264 33.6472C14.3286 35.0725 11.529 35.5816 8.72945 35.2252C6.43887 34.9198 4.65731 33.9018 3.53748 32.2219C1.90862 29.7277 1.75592 27.0298 3.13026 24.3319C4.09739 22.3976 5.62444 20.9723 6.59158 20.2596C6.38797 19.5979 6.08256 18.478 5.92985 17.6635C-1.45089 23.0084 -0.687364 30.2367 1.55231 33.6472C3.23206 36.1924 6.64248 37.7704 10.4092 37.7704C11.4272 37.7704 12.4453 37.6686 13.4633 37.4141C19.9787 36.1415 24.9162 32.2728 27.7158 26.5207ZM36.6745 20.2087C32.8059 15.6783 27.105 13.184 20.5895 13.184H19.7751C19.317 12.2678 18.3499 11.6569 17.2809 11.6569H17.1791C15.6012 11.7078 14.3795 13.0313 14.4304 14.6093C14.4813 16.1364 15.7539 17.3581 17.2809 17.3581H17.3827C18.5026 17.3072 19.4697 16.5946 19.8769 15.6274H20.7931C24.6617 15.6274 28.3266 16.7473 31.6352 18.9361C34.1803 20.6159 36.0127 22.8048 37.0308 25.4518C37.8961 27.5897 37.8452 29.6768 36.929 31.4584C35.5037 34.1563 33.1114 35.6325 29.9554 35.6325C27.9194 35.6325 25.9851 35.0216 24.9671 34.5635C24.4072 35.0725 23.3891 35.887 22.6765 36.396C24.8653 37.4141 27.105 37.974 29.2428 37.974C34.1294 37.974 37.7434 35.2762 39.1178 32.5783C40.5939 29.6259 40.4921 24.5355 36.6745 20.2087ZM10.8164 27.3861C10.8673 28.9132 12.1399 30.1349 13.6669 30.1349H13.7687C15.3467 30.084 16.5683 28.7605 16.5174 27.1825C16.4665 25.6554 15.194 24.4337 13.6669 24.4337H13.5651C13.4633 24.4337 13.3106 24.4337 13.2088 24.4846C11.1218 21.0232 10.2565 17.2563 10.5619 13.184C10.7655 10.1298 11.7835 7.48282 13.5651 5.29397C15.0413 3.41054 17.8917 2.49427 19.826 2.44337C25.2216 2.34156 27.5122 9.06083 27.6649 11.7587C28.3266 11.9114 29.4464 12.2678 30.21 12.5223C29.5991 4.2759 24.509 0 19.6224 0C15.0413 0 10.8164 3.30873 9.13666 8.19547C6.79518 14.7111 8.32223 20.9723 11.1727 25.9099C10.9182 26.2662 10.7655 26.8262 10.8164 27.3861Z" fill="#764ABC"/>
</svg>
