<svg width="45" height="34" viewBox="0 0 45 34" fill="none" xmlns="http://www.w3.org/2000/svg">
<path d="M38.7485 19.5453C37.1786 19.5536 35.8142 19.9345 34.6717 20.4976C34.2525 19.6612 33.8333 18.9159 33.7593 18.3694C33.6771 17.7317 33.5785 17.3425 33.6771 16.5807C33.7758 15.8188 34.2196 14.734 34.2114 14.6512C34.2032 14.5684 34.1128 14.1792 33.2086 14.1709C32.3045 14.1626 31.5237 14.3448 31.4332 14.585C31.3428 14.8251 31.1702 15.3717 31.0551 15.9348C30.899 16.7629 29.2469 19.7192 28.3016 21.2677C27.9975 20.6632 27.7345 20.1332 27.677 19.7109C27.5948 19.0733 27.4961 18.6841 27.5948 17.9222C27.6934 17.1604 28.1372 16.0755 28.129 15.9927C28.1208 15.9099 28.0304 15.5207 27.1263 15.5124C26.2221 15.5042 25.4413 15.6863 25.3509 15.9265C25.2604 16.1666 25.1618 16.7297 24.9728 17.2763C24.7837 17.8228 22.5891 22.7583 22.0138 24.0336C21.7179 24.6878 21.4631 25.2095 21.2822 25.5655C21.2822 25.5655 21.274 25.5904 21.2494 25.6318C21.0932 25.9382 21.0028 26.1038 21.0028 26.1038C21.0028 26.1038 21.0028 26.1038 21.0028 26.1121C20.8795 26.3357 20.748 26.5427 20.6822 26.5427C20.6329 26.5427 20.5425 25.9465 20.6987 25.1349C21.0274 23.4208 21.8083 20.7543 21.8001 20.6632C21.8001 20.6135 21.948 20.1498 21.2905 19.9096C20.6493 19.6695 20.4192 20.067 20.3617 20.067C20.3041 20.067 20.263 20.2077 20.263 20.2077C20.263 20.2077 20.9781 17.21 18.8986 17.21C17.5999 17.21 15.8081 18.6426 14.9204 19.9345C14.3615 20.2409 13.1697 20.8951 11.8957 21.599C11.4107 21.8722 10.9093 22.1455 10.4408 22.4022C10.4079 22.3691 10.3751 22.3277 10.3422 22.2946C7.82705 19.5867 3.17485 17.6738 3.37212 14.0384C3.44609 12.7135 3.89816 9.23546 12.3066 5.01217C19.2274 1.57557 24.7344 2.52788 25.6879 4.63953C27.0523 7.6538 22.7371 13.2517 15.5862 14.0633C12.8573 14.3697 11.4272 13.3097 11.0655 12.9122C10.6874 12.4982 10.6299 12.4733 10.4901 12.5561C10.26 12.6803 10.4079 13.053 10.4901 13.2683C10.7038 13.8314 11.5833 14.8251 13.071 15.3137C14.3861 15.7443 17.5835 15.9845 21.4549 14.4773C25.7865 12.788 29.1729 8.09269 28.1783 4.15923C27.1838 0.167804 20.6083 -1.14887 14.3861 1.07871C10.6874 2.40367 6.67633 4.49047 3.79131 7.20663C0.36381 10.4362 -0.178672 13.2435 0.0432522 14.4194C0.840536 18.593 6.55304 21.3091 8.83804 23.3214C8.72296 23.3876 8.61611 23.4456 8.5257 23.4953C7.3832 24.0667 3.0269 26.3605 1.94194 28.7868C0.709026 31.5361 2.13921 33.507 3.08444 33.772C6.01877 34.5918 9.0353 33.1178 10.6545 30.6832C12.2738 28.2486 12.0765 25.0852 11.3285 23.6361C11.3203 23.6195 11.3121 23.6029 11.2956 23.5864C11.5915 23.4125 11.8957 23.2303 12.1916 23.0564C12.7751 22.7086 13.3505 22.3856 13.8437 22.1207C13.5642 22.8908 13.3587 23.81 13.2601 25.1349C13.1368 26.6917 13.7697 28.7123 14.5999 29.5073C14.9697 29.8551 15.4054 29.8634 15.6848 29.8634C16.6547 29.8634 17.0903 29.0518 17.5753 28.0912C18.1671 26.9153 18.7013 25.549 18.7013 25.549C18.7013 25.549 18.0356 29.2423 19.8438 29.2423C20.5014 29.2423 21.1672 28.3811 21.4631 27.9422V27.9505C21.4631 27.9505 21.4795 27.9256 21.5124 27.8676C21.5781 27.76 21.6192 27.6937 21.6192 27.6937V27.6772C21.8823 27.2134 22.4741 26.1618 23.3535 24.4145C24.4878 22.1621 25.581 19.3465 25.581 19.3465C25.581 19.3465 25.6796 20.0338 26.0166 21.1766C26.2139 21.8474 26.6249 22.5844 26.9537 23.2965C26.6906 23.6692 26.5262 23.8762 26.5262 23.8762C26.5262 23.8762 26.5262 23.8762 26.5345 23.8845C26.3208 24.1661 26.0906 24.4724 25.8358 24.7706C24.9399 25.8471 23.8714 27.081 23.7234 27.437C23.5508 27.8594 23.5919 28.1658 23.9207 28.4142C24.159 28.5964 24.5865 28.6212 25.0221 28.5964C25.8276 28.5384 26.3947 28.3397 26.6742 28.2154C27.1098 28.0581 27.6194 27.818 28.0961 27.4619C28.9756 26.8077 29.5099 25.8719 29.4606 24.6381C29.4359 23.959 29.214 23.28 28.9428 22.6424C29.0249 22.5264 29.0989 22.4105 29.1811 22.2946C30.5702 20.2492 31.6469 18.005 31.6469 18.005C31.6469 18.005 31.7456 18.6923 32.0826 19.8351C32.247 20.4148 32.584 21.0441 32.8799 21.6569C31.573 22.7252 30.7675 23.9673 30.4798 24.7788C29.962 26.286 30.3647 26.965 31.1291 27.1224C31.4743 27.1969 31.9675 27.0313 32.3292 26.8739C32.7894 26.7249 33.3319 26.4682 33.8497 26.0872C34.7292 25.433 35.5758 24.5221 35.5265 23.2883C35.5019 22.7252 35.3539 22.1703 35.1484 21.6321C36.258 21.1683 37.6882 20.9116 39.5129 21.1269C43.4254 21.5907 44.198 24.0501 44.0501 25.0852C43.9021 26.1204 43.0802 26.6835 42.8089 26.8574C42.5377 27.0313 42.4473 27.0892 42.4719 27.2134C42.5048 27.3956 42.6363 27.3873 42.8665 27.3542C43.187 27.2963 44.9213 26.5178 44.9953 24.6132C45.1186 22.1786 42.8171 19.5204 38.7485 19.5453ZM8.5668 29.7971C7.26813 31.2214 5.45985 31.7597 4.67901 31.3042C3.84063 30.8157 4.1694 28.7123 5.76397 27.2052C6.73386 26.286 7.98322 25.433 8.81338 24.9113C9.00243 24.7954 9.28189 24.6298 9.61888 24.4228C9.67642 24.3896 9.7093 24.3731 9.7093 24.3731C9.77505 24.3317 9.84081 24.2903 9.90656 24.2489C10.4901 26.4019 9.93122 28.2983 8.5668 29.7971ZM18.0191 23.3214C17.5671 24.431 16.6218 27.2714 16.0465 27.1141C15.5533 26.9816 15.2492 24.8285 15.9478 22.7003C16.3013 21.6321 17.0492 20.3568 17.4849 19.8599C18.1917 19.065 18.9726 18.8 19.1616 19.1229C19.4 19.5453 18.2986 22.6258 18.0191 23.3214ZM25.8194 27.081C25.6303 27.1803 25.4495 27.2466 25.3673 27.1969C25.3098 27.1638 25.4495 27.0313 25.4495 27.0313C25.4495 27.0313 26.4276 25.9713 26.8139 25.491C27.0358 25.2095 27.2989 24.8782 27.5783 24.5056V24.6132C27.5783 25.8802 26.3618 26.7332 25.8194 27.081ZM31.836 25.698C31.6963 25.5987 31.7209 25.2674 32.1894 24.2323C32.3703 23.8265 32.7977 23.1475 33.5292 22.4933C33.6114 22.7583 33.6689 23.015 33.6607 23.2551C33.6525 24.8534 32.5182 25.4496 31.836 25.698Z" fill="#CD6799"/>
</svg>
