<svg width="41" height="24" viewBox="0 0 41 24" fill="none" xmlns="http://www.w3.org/2000/svg">
<path d="M20.5 0C15.1667 0 11.8333 2.66667 10.5 8C12.5 5.33333 14.8333 4.33333 17.5 5C19.0215 5.38037 20.109 6.48415 21.3127 7.706C23.2736 9.69637 25.543 12 30.5 12C35.8333 12 39.1667 9.33333 40.5 4C38.5 6.66667 36.1667 7.66667 33.5 7C31.9785 6.61963 30.891 5.51585 29.6873 4.294C27.7264 2.30363 25.457 0 20.5 0ZM10.5 12C5.16667 12 1.83333 14.6667 0.5 20C2.5 17.3333 4.83333 16.3333 7.5 17C9.02148 17.3804 10.109 18.4841 11.3127 19.706C13.2736 21.6964 15.543 24 20.5 24C25.8333 24 29.1667 21.3333 30.5 16C28.5 18.6667 26.1667 19.6667 23.5 19C21.9785 18.6196 20.891 17.5159 19.6873 16.294C17.7264 14.3036 15.457 12 10.5 12Z" fill="url(#paint0_linear_978_25)"/>
<defs>
<linearGradient id="paint0_linear_978_25" x1="-0.611111" y1="7.68" x2="33.9354" y2="27.5987" gradientUnits="userSpaceOnUse">
<stop stop-color="#2298BD"/>
<stop offset="1" stop-color="#0ED7B5"/>
</linearGradient>
</defs>
</svg>
