<svg width="41" height="40" viewBox="0 0 41 40" fill="none" xmlns="http://www.w3.org/2000/svg">
<path d="M0.5 20V40H20.5H40.5V20V0H20.5H0.5V20Z" fill="#007ACC"/>
<path d="M9.3452 20.1326L9.3325 21.7707H11.9357H14.5388V29.1675L14.5388 36.5643H16.3801H18.2214V29.1675V21.7707H20.8246H23.4277V20.1643C23.4277 19.2754 23.4087 18.5326 23.3833 18.5135C23.3642 18.4881 20.196 18.4754 16.3547 18.4818L9.36424 18.5008L9.3452 20.1326Z" fill="white"/>
<path d="M32.7765 18.4542C33.7923 18.7081 34.5669 19.1589 35.2781 19.8954C35.6463 20.2891 36.1923 21.0066 36.2368 21.178C36.2495 21.2288 34.5098 22.397 33.4558 23.051C33.4177 23.0764 33.2654 22.9113 33.0939 22.6573C32.5796 21.9081 32.04 21.5843 31.2146 21.5272C30.0019 21.4447 29.2209 22.0796 29.2273 23.1399C29.2273 23.451 29.2717 23.6351 29.3987 23.8891C29.6654 24.4415 30.1606 24.7716 31.7161 25.4447C34.5796 26.6764 35.805 27.4891 36.5669 28.6446C37.4177 29.9335 37.6082 31.9907 37.0304 33.5208C36.3955 35.1843 34.8209 36.3145 32.605 36.6891C31.9193 36.8097 30.2939 36.7907 29.5574 36.6573C27.9511 36.3716 26.4273 35.578 25.4876 34.5367C25.1193 34.1304 24.4019 33.07 24.4463 32.9939C24.4654 32.9685 24.6304 32.8669 24.8146 32.7589C24.9923 32.6573 25.6654 32.27 26.3003 31.9018L27.4495 31.2351L27.6908 31.5907C28.0273 32.105 28.7638 32.8097 29.2082 33.0447C30.4844 33.7177 32.2368 33.6224 33.1003 32.8478C33.4685 32.5113 33.6209 32.1621 33.6209 31.6478C33.6209 31.1843 33.5638 30.9812 33.3225 30.632C33.0114 30.1875 32.3765 29.8129 30.5733 29.032C28.5098 28.1431 27.6209 27.5907 26.8082 26.7145C26.3384 26.2066 25.8939 25.3939 25.7098 24.7145C25.5574 24.1494 25.5193 22.7335 25.64 22.1621C26.0654 20.1685 27.5701 18.778 29.7415 18.3653C30.4463 18.232 32.0844 18.2827 32.7765 18.4542Z" fill="white"/>
</svg>
